<?xml version="1.0" standalone="no"?>
<!DOCTYPE svg PUBLIC "-//W3C//DTD SVG 20010904//EN"
 "http://www.w3.org/TR/2001/REC-SVG-20010904/DTD/svg10.dtd">
<svg version="1.0" xmlns="http://www.w3.org/2000/svg"
 width="480.000000pt" height="480.000000pt" viewBox="0 0 480.000000 480.000000"
 preserveAspectRatio="xMidYMid meet">
<g transform="translate(0.000000,480.000000) scale(0.100000,-0.100000)"
fill="#000000" stroke="none">
<path d="M2330 4717 c-25 -23 -65 -59 -90 -78 -25 -20 -72 -62 -105 -92 -33
-31 -65 -57 -70 -57 -6 0 -25 -13 -43 -30 -18 -16 -42 -30 -52 -30 -11 0 -23
-6 -27 -14 -4 -8 -27 -24 -50 -36 -24 -12 -43 -26 -43 -31 0 -5 -11 -9 -25 -9
-14 0 -28 -7 -31 -15 -4 -8 -14 -15 -24 -15 -10 0 -23 -7 -30 -15 -7 -8 -23
-15 -37 -15 -13 0 -26 -7 -29 -15 -4 -8 -16 -15 -28 -15 -11 0 -30 -7 -40 -15
-11 -8 -30 -15 -42 -15 -12 0 -27 -7 -34 -15 -7 -8 -25 -15 -39 -15 -15 0 -36
-7 -47 -15 -10 -8 -33 -15 -50 -15 -17 0 -37 -7 -44 -15 -7 -9 -29 -15 -54
-15 -23 0 -50 -6 -61 -14 -11 -7 -49 -16 -85 -20 -35 -3 -69 -11 -74 -16 -6
-6 -37 -10 -71 -10 -33 -1 -78 -7 -100 -15 -30 -11 -93 -15 -256 -15 -161 0
-219 -3 -227 -12 -6 -7 -12 -42 -15 -78 -2 -36 -9 -83 -15 -105 -15 -53 -15
-673 -1 -735 6 -25 14 -98 18 -162 4 -70 12 -123 19 -130 7 -7 12 -40 12 -78
0 -43 5 -73 15 -86 8 -11 15 -41 15 -70 0 -33 5 -56 15 -64 9 -8 15 -30 15
-59 0 -26 7 -56 15 -67 8 -10 15 -35 15 -55 0 -19 7 -44 15 -55 8 -10 15 -33
15 -50 0 -17 7 -37 15 -44 9 -7 15 -29 15 -52 0 -25 5 -41 15 -44 9 -4 15 -19
15 -39 0 -18 7 -38 15 -45 8 -7 15 -22 15 -34 0 -12 7 -31 15 -42 8 -10 15
-29 15 -40 0 -12 7 -27 15 -34 8 -7 15 -23 15 -37 0 -13 7 -26 15 -29 8 -4 15
-16 15 -29 0 -12 7 -28 15 -35 8 -7 15 -23 15 -35 0 -12 7 -28 15 -35 8 -7 15
-20 15 -30 0 -10 7 -23 15 -30 8 -7 15 -18 15 -25 0 -7 7 -18 15 -25 8 -7 15
-20 15 -30 0 -10 7 -23 15 -30 8 -7 15 -21 15 -32 0 -10 7 -21 15 -24 8 -4 15
-13 15 -21 0 -8 14 -32 30 -53 16 -21 30 -43 30 -48 0 -6 13 -26 30 -44 16
-18 30 -39 30 -48 0 -8 14 -28 30 -44 17 -16 30 -34 30 -40 0 -6 23 -37 50
-69 28 -32 50 -62 50 -66 0 -4 31 -41 70 -82 38 -40 70 -78 70 -82 0 -11 202
-217 213 -217 5 0 21 -12 36 -27 58 -58 128 -120 189 -167 34 -26 77 -61 94
-77 18 -16 40 -29 50 -29 10 0 18 -4 18 -9 0 -7 81 -65 149 -106 9 -5 32 -22
52 -38 20 -15 44 -27 52 -27 8 0 17 -7 21 -15 3 -8 13 -15 22 -15 9 0 33 -13
54 -30 21 -17 44 -30 51 -30 7 0 21 -7 31 -17 17 -15 19 -15 36 0 10 10 24 17
31 17 7 0 30 13 51 30 21 16 45 30 54 30 9 0 19 7 22 15 4 8 13 15 21 15 8 0
32 12 52 27 20 16 43 33 52 38 68 41 149 99 149 106 0 5 8 9 18 9 10 0 32 13
50 29 17 16 60 51 94 77 61 47 131 109 189 167 15 15 31 27 36 27 11 0 213
206 213 217 0 4 32 42 70 82 39 41 70 78 70 82 0 4 22 34 50 66 27 32 50 63
50 69 0 6 13 24 30 40 16 16 30 36 30 44 0 9 14 30 30 48 17 18 30 38 30 44 0
5 14 27 30 48 17 21 30 45 30 53 0 8 7 17 15 21 8 3 15 14 15 24 0 11 7 25 15
32 8 7 15 20 15 30 0 10 7 23 15 30 8 7 15 18 15 25 0 7 7 18 15 25 8 7 15 20
15 30 0 10 7 23 15 30 8 7 15 23 15 35 0 12 7 28 15 35 8 7 15 23 15 35 0 13
7 25 15 29 8 3 15 16 15 29 0 14 7 30 15 37 8 7 15 22 15 34 0 11 7 30 15 40
8 11 15 30 15 42 0 12 7 27 15 34 8 7 15 27 15 45 0 20 6 35 15 39 10 3 15 19
15 44 0 23 6 45 15 52 8 7 15 27 15 44 0 17 7 40 15 50 8 11 15 36 15 55 0 20
7 45 15 55 8 11 15 41 15 67 0 29 6 51 15 59 9 8 15 30 15 60 0 26 7 61 15 76
8 17 15 55 15 90 0 33 5 65 12 72 7 7 15 60 19 130 4 64 12 137 18 162 14 62
14 682 -1 735 -6 22 -13 69 -15 105 -3 36 -9 71 -15 78 -8 9 -66 12 -227 12
-163 0 -226 4 -256 15 -22 8 -67 14 -100 15 -34 0 -65 4 -71 10 -5 5 -39 13
-74 16 -36 4 -74 13 -85 20 -11 8 -38 14 -61 14 -25 0 -47 6 -54 15 -7 8 -27
15 -44 15 -17 0 -40 7 -50 15 -11 8 -32 15 -47 15 -14 0 -32 7 -39 15 -7 8
-22 15 -34 15 -12 0 -31 7 -42 15 -10 8 -29 15 -40 15 -12 0 -24 7 -28 15 -3
8 -16 15 -29 15 -14 0 -30 7 -37 15 -7 8 -20 15 -30 15 -10 0 -20 7 -24 15 -3
8 -17 15 -31 15 -14 0 -25 4 -25 9 0 5 -19 19 -42 31 -24 12 -47 28 -51 36 -4
8 -16 14 -27 14 -10 0 -34 14 -52 30 -18 17 -37 30 -43 30 -5 0 -37 26 -70 57
-33 30 -80 72 -105 92 -25 19 -65 55 -90 78 -25 24 -52 43 -60 43 -8 0 -35
-19 -60 -43z m139 -287 c36 -33 70 -60 77 -60 7 0 17 -6 21 -13 10 -15 88 -77
98 -77 4 0 24 -13 45 -30 21 -16 45 -30 53 -30 8 0 17 -7 21 -15 3 -8 16 -15
30 -15 13 0 26 -7 30 -15 3 -8 14 -15 24 -15 11 0 25 -7 32 -15 7 -8 20 -15
30 -15 10 0 23 -7 30 -15 7 -8 20 -15 30 -15 10 0 23 -7 30 -15 7 -8 23 -15
35 -15 12 0 28 -7 35 -15 7 -8 23 -15 35 -15 12 0 28 -7 35 -15 7 -8 25 -15
40 -15 15 0 33 -7 40 -15 7 -8 27 -15 45 -15 18 0 38 -7 45 -15 7 -8 27 -15
44 -15 17 -1 42 -7 56 -15 14 -8 41 -15 60 -15 19 0 46 -7 60 -15 14 -8 48
-15 75 -15 28 0 61 -7 75 -15 16 -9 54 -14 102 -15 42 0 103 -7 135 -15 32 -8
100 -15 155 -15 l98 0 1 -142 c4 -375 -3 -624 -17 -672 -8 -27 -14 -77 -14
-110 0 -34 -7 -79 -15 -101 -8 -22 -14 -63 -15 -91 0 -29 -7 -65 -15 -80 -8
-16 -15 -48 -15 -72 0 -25 -6 -50 -15 -58 -8 -9 -15 -32 -15 -52 -1 -20 -7
-48 -15 -62 -8 -14 -14 -39 -15 -56 0 -17 -7 -37 -15 -44 -8 -7 -15 -27 -15
-44 0 -17 -7 -40 -15 -50 -8 -11 -15 -32 -15 -47 0 -14 -7 -32 -15 -39 -8 -7
-15 -27 -15 -45 0 -20 -6 -35 -15 -39 -8 -3 -15 -16 -15 -28 0 -13 -7 -32 -15
-42 -8 -11 -15 -30 -15 -42 0 -12 -7 -27 -15 -34 -8 -7 -15 -23 -15 -35 0 -13
-7 -25 -15 -29 -8 -3 -15 -16 -15 -29 0 -14 -7 -30 -15 -37 -8 -7 -15 -20 -15
-30 0 -10 -7 -23 -15 -30 -8 -7 -15 -20 -15 -30 0 -10 -7 -20 -15 -24 -8 -3
-15 -16 -15 -30 0 -13 -7 -26 -15 -30 -8 -3 -15 -13 -15 -22 0 -9 -14 -33 -30
-54 -17 -21 -30 -45 -30 -54 0 -9 -5 -16 -10 -16 -6 0 -15 -10 -20 -22 -13
-30 -30 -55 -57 -85 -12 -14 -25 -34 -29 -46 -3 -11 -19 -33 -35 -48 -16 -16
-29 -31 -29 -35 0 -7 -60 -86 -72 -95 -4 -3 -26 -30 -48 -60 -56 -74 -270
-290 -344 -346 -34 -26 -81 -66 -106 -90 -25 -24 -49 -43 -55 -43 -5 0 -28
-16 -50 -36 -22 -20 -61 -50 -87 -66 -27 -16 -48 -33 -48 -38 0 -4 -8 -11 -17
-14 -35 -13 -73 -37 -73 -47 0 -5 -10 -9 -22 -9 -13 0 -36 -14 -52 -30 -16
-17 -38 -30 -48 -30 -10 0 -21 -7 -24 -15 -8 -20 -60 -20 -68 0 -3 8 -14 15
-24 15 -10 0 -32 13 -48 30 -16 16 -39 30 -51 30 -13 0 -23 4 -23 9 0 10 -38
34 -72 47 -10 3 -18 10 -18 14 0 5 -21 22 -47 38 -27 16 -66 46 -88 66 -22 20
-44 36 -50 36 -5 0 -30 19 -55 43 -25 24 -72 64 -106 90 -73 55 -287 271 -341
343 -21 28 -45 58 -54 67 -10 9 -39 46 -65 82 -26 36 -51 65 -55 65 -4 0 -9
10 -13 23 -3 13 -16 35 -28 49 -28 31 -45 56 -58 86 -5 12 -14 22 -20 22 -5 0
-10 7 -10 16 0 9 -13 33 -30 54 -17 21 -30 45 -30 54 0 9 -7 19 -15 22 -8 4
-15 17 -15 30 0 14 -7 27 -15 30 -8 4 -15 14 -15 24 0 10 -7 23 -15 30 -8 7
-15 20 -15 30 0 10 -7 23 -15 30 -8 7 -15 23 -15 37 0 13 -7 26 -15 29 -8 4
-15 16 -15 29 0 12 -7 28 -15 35 -8 7 -15 22 -15 34 0 12 -7 31 -15 42 -8 10
-15 29 -15 42 0 12 -7 25 -15 28 -9 4 -15 19 -15 39 0 18 -7 38 -15 45 -8 7
-15 25 -15 39 0 15 -7 36 -15 47 -8 10 -15 33 -15 50 0 17 -7 37 -15 44 -8 7
-15 27 -15 44 -1 17 -7 42 -15 56 -8 14 -14 42 -15 62 0 20 -7 43 -15 52 -9 8
-15 33 -15 58 0 24 -7 56 -15 72 -8 15 -15 51 -15 80 -1 28 -7 69 -15 91 -8
22 -15 67 -15 101 0 33 -6 83 -14 110 -14 48 -21 297 -17 672 l1 142 98 0 c55
0 123 7 155 15 32 8 93 15 135 15 48 1 86 6 102 15 14 8 48 15 75 15 28 0 61
7 75 15 14 8 41 15 60 15 19 0 46 7 60 15 14 8 39 14 56 15 17 0 37 7 44 15 7
8 27 15 45 15 18 0 38 7 45 15 7 8 25 15 40 15 15 0 33 7 40 15 7 8 23 15 35
15 12 0 28 7 35 15 7 8 23 15 35 15 12 0 28 7 35 15 7 8 20 15 30 15 10 0 23
7 30 15 7 8 20 15 30 15 10 0 23 7 30 15 7 8 21 15 32 15 10 0 21 7 24 15 4 8
17 15 30 15 14 0 27 7 30 15 4 8 13 15 21 15 8 0 32 14 53 30 21 17 41 30 45
30 10 0 88 62 98 77 4 7 14 13 21 13 7 0 41 27 77 60 35 32 71 59 79 59 8 0
44 -27 79 -59z"/>
<path d="M2240 3785 c-9 -10 -32 -15 -75 -15 -43 0 -66 -5 -75 -15 -8 -9 -30
-15 -60 -15 -30 0 -52 -6 -60 -15 -7 -8 -20 -15 -30 -15 -10 0 -23 -7 -30 -15
-7 -8 -23 -15 -35 -15 -12 0 -28 -7 -35 -15 -7 -8 -18 -15 -25 -15 -7 0 -18
-7 -25 -15 -7 -8 -20 -15 -30 -15 -10 0 -23 -7 -30 -15 -7 -8 -20 -15 -29 -15
-9 0 -37 -20 -61 -45 -24 -25 -51 -45 -60 -45 -17 0 -150 -129 -150 -146 0 -6
-27 -41 -60 -77 -33 -36 -60 -72 -60 -80 0 -8 -7 -20 -15 -27 -8 -7 -15 -20
-15 -30 0 -10 -7 -23 -15 -30 -8 -7 -15 -20 -15 -30 0 -10 -7 -23 -15 -30 -8
-7 -15 -20 -15 -30 0 -10 -7 -23 -15 -30 -8 -7 -15 -27 -15 -45 0 -18 -7 -38
-15 -45 -9 -8 -15 -30 -15 -60 0 -30 -6 -52 -15 -60 -13 -10 -15 -53 -15 -270
0 -217 2 -260 15 -270 8 -7 15 -27 15 -45 0 -18 7 -38 15 -45 8 -7 15 -27 15
-45 0 -18 7 -38 15 -45 8 -7 15 -27 15 -45 0 -18 7 -38 15 -45 8 -7 15 -20 15
-29 0 -10 13 -30 30 -46 16 -16 30 -36 30 -45 0 -9 13 -29 30 -45 16 -16 30
-36 30 -45 0 -20 250 -270 271 -270 8 0 28 -13 44 -30 16 -16 36 -30 46 -30 9
0 22 -7 29 -15 7 -8 20 -15 30 -15 10 0 23 -7 30 -15 7 -8 20 -15 30 -15 10 0
23 -7 30 -15 7 -8 20 -15 30 -15 10 0 23 -7 30 -15 7 -8 27 -15 45 -15 18 0
38 -7 45 -15 8 -9 30 -15 60 -15 30 0 52 -6 60 -15 19 -22 461 -22 480 0 8 9
30 15 60 15 30 0 52 6 60 15 7 8 27 15 45 15 18 0 38 7 45 15 7 8 20 15 30 15
10 0 23 7 30 15 7 8 27 15 44 15 23 0 41 9 61 30 16 17 36 30 46 30 9 0 22 7
29 15 7 8 20 15 29 15 21 0 331 310 331 331 0 8 14 28 30 44 17 16 30 39 30
51 0 12 7 24 15 28 8 3 15 14 15 24 0 11 7 25 15 32 8 7 15 20 15 30 0 10 7
23 15 30 8 7 15 27 15 45 0 18 7 38 15 45 9 8 15 30 15 60 0 30 6 52 15 60 11
9 15 34 15 94 0 57 5 88 15 102 20 27 20 147 0 164 -11 9 -15 35 -15 105 0 70
-4 96 -15 105 -9 8 -15 30 -15 60 0 30 -6 52 -15 60 -8 7 -15 20 -15 30 0 10
-7 23 -15 30 -8 7 -15 27 -15 44 0 23 -9 41 -30 61 -16 16 -30 36 -30 46 0 9
-7 22 -15 29 -8 7 -15 20 -15 29 0 9 -14 29 -30 45 -17 16 -30 37 -30 45 0 21
-220 241 -241 241 -8 0 -28 14 -44 30 -16 17 -36 30 -45 30 -9 0 -29 14 -45
30 -16 17 -36 30 -46 30 -9 0 -22 7 -29 15 -7 8 -20 15 -30 15 -10 0 -23 7
-30 15 -7 8 -27 15 -45 15 -18 0 -38 7 -45 15 -7 8 -29 15 -49 15 -21 0 -46 7
-57 15 -12 9 -43 14 -85 15 -47 0 -70 4 -79 15 -10 12 -40 15 -150 15 -110 0
-140 -3 -150 -15z m120 -172 c1 -38 27 -83 49 -83 6 0 11 17 11 38 1 37 27 82
49 82 6 0 11 -17 11 -37 1 -38 27 -83 49 -83 6 0 11 8 11 19 0 10 6 24 14 31
8 6 16 21 18 33 5 36 23 20 28 -25 8 -70 60 -125 60 -64 0 14 5 28 11 31 5 4
14 18 20 32 15 40 29 16 29 -53 0 -56 2 -64 19 -64 11 0 30 18 47 45 39 63 54
59 54 -15 0 -57 1 -60 24 -60 15 0 34 12 49 30 14 17 30 30 36 30 16 0 13 -53
-4 -76 -8 -10 -15 -25 -15 -31 0 -18 55 -16 70 2 7 8 20 15 30 15 10 0 21 8
24 17 5 12 10 13 18 5 9 -9 7 -16 -5 -30 -22 -25 -24 -112 -2 -112 8 0 15 4
15 9 0 10 65 51 81 51 15 0 10 -27 -6 -34 -8 -3 -15 -17 -15 -31 0 -14 -4 -25
-10 -25 -16 0 -12 -22 7 -35 13 -9 22 -9 44 2 16 8 31 18 34 24 8 13 45 11 45
-2 0 -6 -13 -31 -30 -56 -32 -47 -39 -83 -16 -83 7 0 19 7 26 15 14 16 80 21
80 6 0 -6 -13 -25 -30 -43 -43 -47 -40 -68 9 -68 22 0 44 6 51 15 16 19 50 20
50 1 0 -7 -18 -30 -40 -50 -22 -20 -40 -40 -40 -45 0 -6 26 -11 58 -13 53 -3
57 -5 57 -28 0 -16 -7 -26 -20 -30 -30 -8 -65 -33 -65 -47 0 -9 19 -13 63 -13
35 0 66 -3 70 -6 10 -10 -24 -54 -42 -54 -19 -1 -61 -34 -61 -49 0 -6 13 -11
29 -11 34 0 91 -30 91 -47 0 -7 -10 -13 -22 -13 -23 -1 -68 -31 -68 -47 1 -12
68 -43 95 -43 16 0 25 -6 25 -15 0 -10 -10 -15 -29 -15 -16 0 -31 -6 -35 -15
-3 -8 -17 -15 -31 -15 -14 0 -25 -6 -25 -13 0 -18 34 -45 62 -49 17 -2 23 -9
23 -28 0 -23 -4 -25 -57 -28 -32 -2 -58 -7 -58 -13 0 -12 67 -72 92 -81 36
-14 7 -28 -58 -28 -45 0 -64 -4 -64 -13 0 -14 35 -39 65 -47 13 -4 21 -16 23
-34 3 -27 2 -28 -40 -26 -64 4 -78 1 -78 -13 0 -7 8 -17 19 -24 10 -6 29 -26
41 -42 19 -27 20 -32 5 -37 -9 -4 -24 1 -34 10 -12 11 -31 16 -53 14 -46 -4
-50 -36 -9 -71 17 -14 31 -30 31 -36 0 -14 -77 -14 -85 -1 -3 6 -13 10 -21 10
-19 0 -18 -34 1 -50 8 -7 15 -21 15 -32 0 -10 7 -21 15 -24 8 -4 15 -12 15
-20 0 -19 -44 -18 -60 1 -7 8 -25 15 -41 15 -29 0 -46 -14 -29 -25 5 -3 10
-17 10 -31 0 -14 7 -27 15 -30 16 -7 21 -34 6 -34 -16 0 -81 41 -81 51 0 5 -7
9 -15 9 -11 0 -15 -11 -15 -39 0 -22 6 -44 15 -51 17 -14 20 -60 4 -60 -6 0
-22 14 -36 30 -18 23 -33 30 -59 30 -24 0 -34 -5 -34 -15 0 -8 5 -15 10 -15 6
0 10 -20 10 -45 0 -53 -12 -56 -47 -14 -17 19 -33 29 -47 27 -18 -3 -21 -11
-24 -60 -2 -37 -7 -58 -15 -57 -7 0 -28 20 -47 44 -49 61 -60 58 -60 -15 0
-47 -3 -60 -15 -60 -8 0 -15 3 -15 8 -1 4 -11 20 -24 36 -20 24 -26 27 -45 17
-16 -9 -21 -21 -21 -51 0 -21 -4 -41 -8 -44 -12 -7 -52 49 -52 74 0 13 -7 20
-18 20 -30 0 -42 -21 -42 -72 0 -32 -4 -48 -12 -48 -17 1 -48 63 -48 95 0 14
-5 25 -11 25 -22 0 -48 -45 -49 -82 0 -67 -49 -33 -60 42 -4 29 -9 35 -30 35
-19 0 -25 -6 -31 -34 -7 -33 -23 -51 -46 -51 -9 0 -13 19 -13 60 0 71 -13 77
-50 22 -49 -74 -70 -72 -70 8 0 73 -11 76 -60 15 -19 -24 -41 -44 -47 -44 -18
-1 -16 54 2 69 8 7 15 21 15 31 0 24 -51 27 -70 4 -7 -8 -19 -15 -27 -15 -7 0
-16 -7 -19 -15 -8 -19 -34 -19 -34 0 0 8 7 15 15 15 11 0 15 12 15 45 0 41 -2
45 -24 45 -15 0 -34 -12 -49 -30 -14 -16 -30 -30 -36 -30 -18 0 -13 78 5 88 9
5 14 18 12 33 -5 37 -40 36 -71 0 -14 -17 -30 -31 -36 -31 -16 0 -13 46 4 60
20 16 21 90 1 90 -8 0 -16 -7 -20 -15 -3 -8 -15 -15 -26 -15 -11 0 -23 -7 -26
-15 -4 -8 -12 -15 -19 -15 -25 0 -28 22 -6 51 20 27 28 78 14 92 -3 4 -13 1
-22 -7 -22 -18 -79 -28 -87 -15 -3 6 8 25 25 43 40 42 42 76 3 76 -16 0 -37
-7 -48 -15 -25 -19 -44 -19 -44 0 0 8 20 29 45 47 64 48 59 58 -30 58 -89 0
-94 9 -30 60 61 49 58 60 -15 60 -42 0 -60 4 -60 13 0 14 35 39 65 47 13 4 20
14 20 30 0 21 -6 26 -35 30 -75 11 -109 60 -42 60 37 1 82 27 82 49 0 6 -10
11 -22 11 -30 0 -97 33 -98 48 0 6 11 12 24 12 13 0 29 7 36 15 7 8 23 15 36
15 55 0 -3 55 -66 62 -19 2 -25 9 -25 28 0 23 4 25 55 30 50 5 55 7 55 30 0
16 -7 26 -20 30 -30 8 -65 33 -65 47 0 9 18 13 60 13 73 0 76 11 15 60 -71 57
-61 69 37 44 43 -10 48 20 9 60 -30 31 -38 55 -24 69 3 4 14 0 24 -9 10 -9 30
-14 51 -12 46 4 50 36 9 71 -17 14 -31 30 -31 36 0 17 80 13 86 -4 12 -31 34
-16 34 23 0 29 -7 45 -30 67 -16 15 -27 32 -24 37 8 13 40 9 54 -7 7 -8 22
-15 34 -15 12 0 27 -5 34 -12 19 -19 27 20 8 41 -9 10 -16 25 -16 33 0 9 -7
21 -15 28 -22 18 -18 30 8 30 13 0 36 -13 52 -30 30 -31 75 -41 75 -16 0 8 -7
16 -15 20 -18 6 -21 81 -4 92 6 3 30 -8 53 -25 24 -16 46 -27 50 -24 12 13 6
71 -9 77 -8 3 -15 17 -15 31 0 36 38 33 75 -5 47 -49 99 -35 60 16 -18 23 -20
74 -2 74 18 0 29 -11 57 -52 37 -56 50 -49 50 27 0 39 4 65 11 65 21 0 49 -21
49 -38 1 -20 34 -62 49 -62 7 0 11 23 11 59 0 33 4 63 10 66 16 10 50 -14 50
-35 0 -21 33 -60 50 -60 6 0 10 16 10 36 0 37 26 83 48 84 7 0 12 -14 12 -37z"/>
<path d="M2194 3365 c-10 -8 -28 -15 -40 -15 -11 0 -31 -11 -43 -24 -19 -20
-22 -33 -19 -82 3 -53 6 -60 31 -72 15 -7 27 -17 27 -23 0 -5 7 -9 15 -9 10 0
15 10 15 28 0 39 11 47 31 21 19 -25 36 -19 50 18 12 31 33 25 37 -10 4 -35
32 -36 32 -2 0 39 28 43 55 9 24 -30 29 -27 37 19 6 33 23 23 26 -15 4 -46 20
-48 47 -8 26 39 45 39 45 0 0 -33 11 -38 30 -15 19 23 30 18 30 -16 0 -26 3
-30 23 -27 12 2 26 13 32 26 14 32 29 22 33 -21 3 -40 12 -46 32 -22 19 23 30
18 30 -15 0 -27 3 -30 30 -30 20 0 30 5 30 15 0 8 7 15 15 15 8 0 15 -7 15
-15 0 -8 -7 -15 -15 -15 -10 0 -15 -10 -15 -30 0 -23 5 -30 19 -30 10 0 24 7
31 15 7 8 19 15 26 15 19 0 18 -26 -1 -34 -19 -7 -20 -56 -1 -56 8 0 16 7 20
15 7 19 56 20 56 1 0 -8 -7 -16 -15 -20 -14 -5 -22 -56 -8 -56 3 0 15 8 25 17
25 22 45 5 29 -26 -7 -12 -16 -21 -21 -21 -6 0 -10 -7 -10 -15 0 -10 10 -15
30 -15 33 0 38 -11 15 -30 -26 -21 -17 -30 30 -30 53 0 59 -16 15 -45 -39 -26
-39 -45 0 -45 33 0 38 -11 15 -30 -22 -18 -18 -28 13 -32 21 -2 28 -9 30 -30
4 -31 23 -36 42 -13 7 8 18 15 24 15 7 0 22 10 34 23 19 20 22 35 22 99 0 55
-4 79 -15 88 -8 7 -15 20 -15 30 0 9 -11 37 -25 61 -14 24 -28 51 -32 59 -35
74 -212 270 -243 270 -9 0 -29 14 -45 30 -16 17 -36 30 -46 30 -9 0 -22 7 -29
15 -7 8 -27 15 -45 15 -18 0 -38 7 -45 15 -7 8 -27 15 -45 15 -18 0 -38 7 -45
15 -18 22 -377 22 -406 0z"/>
<path d="M1750 3088 c-44 -46 -80 -90 -80 -99 0 -9 -7 -22 -15 -29 -8 -7 -15
-21 -15 -32 0 -10 -7 -21 -15 -24 -8 -4 -15 -16 -15 -29 0 -12 -7 -28 -15 -35
-8 -7 -15 -28 -15 -47 0 -21 -6 -36 -15 -39 -11 -5 -15 -23 -15 -73 -1 -38 -7
-76 -15 -91 -19 -33 -19 -129 0 -154 10 -13 15 -43 15 -87 0 -47 4 -70 15 -79
8 -7 15 -27 15 -45 0 -18 7 -38 15 -45 8 -7 15 -20 15 -30 0 -10 7 -23 15 -30
8 -7 15 -20 15 -29 0 -10 12 -28 26 -42 14 -13 33 -37 41 -53 25 -48 94 -116
117 -116 12 0 27 -5 33 -11 8 -8 13 -8 17 0 4 6 17 11 30 11 39 0 66 39 66 98
0 53 -8 63 -30 37 -19 -23 -30 -18 -30 15 0 27 -3 30 -30 30 -33 0 -38 11 -15
30 26 21 17 30 -30 30 -32 0 -45 4 -45 14 0 8 7 16 15 20 19 7 20 56 1 56 -8
0 -16 -7 -20 -15 -3 -8 -10 -15 -16 -15 -15 0 -12 29 5 46 25 25 18 44 -15 44
-33 0 -38 11 -15 30 23 19 18 30 -15 30 -39 0 -39 19 0 45 44 29 38 45 -15 45
-51 0 -66 26 -17 32 21 2 27 8 27 28 0 20 -6 26 -27 28 -39 5 -37 32 2 32 39
0 39 19 0 45 -44 29 -38 45 15 45 32 0 45 4 45 14 0 8 -11 16 -25 18 -32 4
-34 21 -3 28 16 4 23 13 23 30 0 17 -7 26 -23 30 -37 8 -26 25 18 28 43 3 49
12 25 32 -23 19 -18 30 15 30 25 0 30 4 30 25 0 14 -7 28 -15 31 -19 8 -20 34
-1 34 7 0 19 -7 26 -15 7 -8 21 -15 31 -15 23 0 25 25 4 34 -19 7 -20 56 -1
56 8 0 18 -5 21 -10 12 -19 25 1 25 36 0 37 10 43 30 19 22 -27 30 -16 28 38
-2 72 -25 97 -90 97 -47 0 -50 -2 -128 -82z"/>
<path d="M2322 3038 c-7 -7 -33 -15 -60 -18 -41 -4 -47 -8 -50 -30 -2 -16 8
-41 28 -68 16 -23 30 -48 30 -56 0 -7 7 -19 15 -26 8 -7 15 -19 15 -27 0 -8
14 -32 30 -53 17 -21 30 -42 30 -48 0 -5 7 -15 15 -22 8 -7 15 -21 15 -30 0
-21 57 -60 87 -60 12 0 26 -7 33 -15 11 -13 42 -15 199 -13 l186 3 3 53 c2 35
-2 59 -12 74 -9 12 -16 32 -16 43 0 12 -13 34 -30 50 -16 16 -30 34 -30 41 0
6 -19 30 -41 53 -23 22 -47 41 -53 41 -7 0 -25 14 -41 30 -16 17 -39 30 -51
30 -12 0 -27 7 -34 15 -8 9 -30 15 -60 15 -30 0 -52 6 -60 15 -15 19 -130 21
-148 3z"/>
<path d="M2003 2861 c-35 -37 -63 -74 -63 -83 0 -9 -7 -21 -15 -28 -8 -7 -15
-28 -15 -47 0 -21 -6 -36 -15 -39 -22 -9 -22 -261 0 -290 8 -10 15 -29 15 -40
0 -12 7 -27 15 -34 8 -7 15 -20 15 -29 0 -10 14 -30 30 -46 17 -16 30 -33 30
-39 0 -14 52 -66 66 -66 14 0 84 81 84 97 0 6 7 16 15 23 8 7 15 20 15 30 0
10 7 23 15 30 8 7 15 20 15 29 0 9 14 29 30 45 17 16 30 39 30 51 0 12 7 30
15 41 19 25 19 88 0 104 -8 7 -15 20 -15 30 0 10 -7 23 -15 30 -8 7 -15 20
-15 30 0 10 -7 23 -15 30 -8 7 -15 18 -15 26 0 7 -20 42 -45 78 -25 37 -45 72
-45 79 -1 15 -35 57 -47 56 -4 -1 -36 -32 -70 -68z"/>
<path d="M2381 2541 c-30 -23 -25 -56 9 -56 20 0 26 6 28 29 5 39 -8 48 -37
27z"/>
<path d="M2412 2397 c-29 -29 -52 -60 -52 -69 0 -8 -7 -21 -15 -28 -8 -7 -15
-17 -15 -22 0 -6 -13 -27 -30 -48 -16 -21 -30 -45 -30 -53 0 -8 -7 -20 -15
-27 -8 -7 -15 -20 -15 -30 0 -10 -7 -23 -15 -30 -27 -23 -18 -54 24 -72 51
-24 272 -26 291 -3 7 8 24 15 37 15 14 0 42 14 63 30 21 17 44 30 52 30 19 0
148 132 148 152 0 8 7 21 15 28 8 7 15 20 15 30 0 10 7 23 15 30 10 8 15 31
15 66 l0 54 -218 0 -218 0 -52 -53z"/>
<path d="M3110 2435 c-7 -8 -23 -15 -36 -15 -33 0 -30 -21 6 -45 44 -29 38
-45 -15 -45 -33 0 -45 -4 -45 -15 0 -10 10 -15 30 -15 20 0 30 -5 30 -15 0
-11 -12 -15 -45 -15 -53 0 -59 -16 -15 -45 16 -11 30 -26 30 -32 0 -18 -49
-16 -56 2 -9 21 -34 19 -34 -4 0 -10 7 -24 15 -31 25 -21 18 -40 -15 -40 -33
0 -38 -11 -15 -30 26 -21 17 -30 -30 -30 -47 0 -56 -9 -30 -30 8 -7 15 -16 15
-21 0 -15 -50 -10 -56 6 -9 21 -34 19 -34 -4 0 -10 7 -24 15 -31 8 -7 15 -19
15 -26 0 -19 -26 -18 -34 1 -3 8 -17 15 -31 15 -21 0 -25 -5 -25 -30 0 -33
-11 -38 -30 -15 -21 26 -30 17 -30 -30 0 -53 -16 -59 -45 -15 -26 39 -45 39
-45 0 0 -33 -11 -38 -30 -15 -19 23 -30 18 -30 -13 0 -42 -9 -44 -42 -11 -35
35 -48 30 -48 -17 0 -24 -5 -34 -15 -34 -10 0 -15 10 -15 30 0 37 -17 38 -49
4 -27 -28 -38 -23 -43 19 -4 35 -22 36 -26 2 -4 -29 -32 -35 -32 -6 0 24 -25
45 -45 37 -8 -3 -15 -17 -15 -31 0 -16 -6 -25 -15 -25 -11 0 -15 12 -15 45 0
25 -4 45 -10 45 -5 0 -26 -17 -45 -37 -31 -34 -35 -43 -33 -88 3 -45 7 -52 46
-82 38 -29 51 -33 102 -33 39 0 62 -5 70 -15 17 -21 139 -21 166 0 12 9 42 14
80 15 42 0 65 5 74 15 7 8 27 15 45 15 18 0 38 7 45 15 7 8 20 15 30 15 10 0
23 7 30 15 7 8 20 15 30 15 10 0 23 7 30 15 7 8 19 15 26 15 19 0 244 219 244
236 0 8 14 33 30 56 17 22 30 47 30 53 0 7 7 18 15 25 8 7 15 25 15 40 0 15 7
33 15 40 11 9 15 33 15 89 0 68 -3 80 -23 99 -27 26 -79 29 -97 7z"/>
</g>
</svg>
