<?xml version="1.0" encoding="UTF-8" standalone="no"?>
<svg
   version="1.0"
   width="480.000000pt"
   height="480.000000pt"
   viewBox="0 0 480.000000 480.000000"
   preserveAspectRatio="xMidYMid meet"
   id="svg22"
   sodipodi:docname="admin-control-icon.svg"
   inkscape:version="1.1.2 (b8e25be8, 2022-02-05)"
   xmlns:inkscape="http://www.inkscape.org/namespaces/inkscape"
   xmlns:sodipodi="http://sodipodi.sourceforge.net/DTD/sodipodi-0.dtd"
   xmlns="http://www.w3.org/2000/svg"
   xmlns:svg="http://www.w3.org/2000/svg">
  <defs
     id="defs26" />
  <sodipodi:namedview
     id="namedview24"
     pagecolor="#ffffff"
     bordercolor="#666666"
     borderopacity="1.0"
     inkscape:pageshadow="2"
     inkscape:pageopacity="0.0"
     inkscape:pagecheckerboard="0"
     inkscape:document-units="pt"
     showgrid="false"
     inkscape:zoom="0.48226892"
     inkscape:cx="380.49311"
     inkscape:cy="-392.9343"
     inkscape:window-width="1830"
     inkscape:window-height="1387"
     inkscape:window-x="730"
     inkscape:window-y="25"
     inkscape:window-maximized="0"
     inkscape:current-layer="g20" />
  <g
     transform="translate(0.000000,480.000000) scale(0.100000,-0.100000)"
     fill="#000000"
     stroke="none"
     id="g20">
    <path
       d="m 2330.0002,4717 c -25.0005,-23 -65.0001,-59 -89.9998,-78 -25,-20 -72.0001,-62 -105.0006,-92 -32.9999,-31 -64.9997,-57 -69.9999,-57 -6,0 -25,-13 -43,-30 -17.9995,-16 -41.9996,-30 -51.9997,-30 -10.9999,0 -23.0001,-6 -27.0001,-14 -3.9998,-8 -26.9997,-24 -50.0002,-36 -23.9996,-12 -43,-26 -43,-31 0,-5 -10.9998,-9 -25,-9 -13.9999,0 -28.0001,-7 -30.9999,-15 -4,-8 -14.0002,-15 -24.0004,-15 -9.9998,0 -22.9996,-7 -29.9993,-15 -7.0005,-8 -23.0005,-15 -36.9999,-15 -13.0006,0 -26.0002,-7 -29.0005,-15 -4,-8 -15.9995,-15 -27.9997,-15 -11.0003,0 -30.0002,-7 -40.0004,-15 -10.9995,-8 -30.0001,-15 -41.9996,-15 -11.9999,0 -27.0004,-7 -34.0002,-15 -6.9997,-8 -24.9997,-15 -38.9999,-15 -14.9999,0 -36.0002,-7 -47.0002,-15 -10.0001,-8 -32.9998,-15 -49.9996,-15 -17.0004,0 -37,-7 -44.0004,-15 -6.9998,-9 -28.9999,-15 -53.9995,-15 -23.0001,0 -50.0006,-6 -61.0004,-14 -10.9997,-7 -49.0001,-16 -85.0003,-20 -34.9999,-3 -68.9994,-11 -73.9999,-16 -6.0001,-6 -36.9999,-10 -70.9996,-10 -33.00022,-1 -78.00018,-7 -100.00019,-15 -29.99997,-11 -93.00001,-15 -256.00002,-15 -160.99998,0 -218.99998,-3 -226.99997,-12 -6.00004,-7 -12.00002,-42 -15.00004,-78 -1.99995,-36 -9.00001,-83 -15,-105 -14.99996,-53 -14.99996,-673 -1.00002,-735 6.00007,-25 14.00007,-98 18.00002,-162 4.00004,-70 12.00002,-123 19.00003,-130 6.99998,-7 12.00003,-40 12.00003,-78 0,-43 4.99997,-73 14.99999,-86 C 463.00002,2643 470,2613 470,2584 c 0,-33 4.99998,-56 14.99999,-64 8.99998,-8 15.00005,-30 15.00005,-59 0,-26 6.99997,-56 15,-67 C 523.00002,2384 530,2359 530,2339 c 0,-19 6.99997,-44 15,-55 7.99998,-10 15.00004,-33 15.00004,-50 0,-17 6.99997,-37 15,-44 8.99998,-7 14.99996,-29 14.99996,-52 0,-25 4.99998,-41 14.99999,-44 8.99998,-4 15.00005,-19 15.00005,-39 0,-18 6.99997,-38 14.99999,-45 8,-7 14.99997,-22 14.99997,-34 0,-12 6.99998,-31 15,-42 8,-10 15.00004,-29 15.00004,-40 0,-12 6.99998,-27 14.99999,-34 8,-7 14.99997,-23 14.99997,-37 0,-13 6.99999,-26 15.00001,-29 7.99998,-4 15.00003,-16 15.00003,-29 0,-12 6.99998,-28 15,-35 7.99998,-7 14.99996,-23 14.99996,-35 0,-12 6.99999,-28 15.00001,-35 7.99999,-7 15.00003,-20 15.00003,-30 0,-10 6.99998,-23 15,-30 7.99999,-7 14.99997,-18 14.99997,-25 0,-7 6.99997,-18 15,-25 7.99999,-7 15.00004,-20 15.00004,-30 0,-10 6.99996,-23 14.99999,-30 7.99999,-7 14.99997,-21 14.99997,-32 0,-10 6.99998,-21 15,-24 7.99999,-4 15.00004,-13 15.00004,-21 0,-8 13.99998,-32 29.99996,-53 15.99999,-21 30.00003,-43 30.00003,-48 0,-6 12.99998,-26 29.99986,-44 16.0003,-18 30.0005,-39 30.0005,-48 0,-8 13.9999,-28 29.9993,-44 17.0004,-16 30.0002,-34 30.0002,-40 0,-6 23,-37 49.9998,-69 28.0001,-32 50.0005,-62 50.0005,-66 0,-4 30.9997,-41 69.9997,-82 38.0004,-40 70.0001,-78 70.0001,-82 0,-11 202.0002,-217 213,-217 5.0001,0 21.0004,-12 36.0002,-27 57.9996,-58 127.9996,-120 188.9996,-167 34.0002,-26 77.0003,-61 94.0001,-77 18.0003,-16 40.0004,-29 49.9999,-29 10,0 18.0002,-4 18.0002,-9 0,-7 81.0003,-65 149,-106 8.9999,-5 32.0002,-22 51.9999,-38 19.9999,-15 44.0003,-27 52.0004,-27 7.9999,0 16.9996,-7 20.9996,-15 3.0005,-8 13,-15 22.0004,-15 8.9995,0 32.9999,-13 53.9995,-30 21,-17 44.0004,-30 51.0001,-30 6.9999,0 21.0001,-7 30.9999,-17 17.0006,-15 18.9999,-15 36.0006,0 9.9998,10 24.0001,17 30.9997,17 6.9999,0 30.0002,13 51.0001,30 20.9997,16 45.0001,30 53.9995,30 9.0006,0 19.0001,7 22.0004,15 4.0001,8 12.9999,15 20.9997,15 8.0001,0 32.0005,12 52.0005,27 19.9996,16 43,33 51.9997,38 67.9998,41 149,99 149,106 0,5 8.0002,9 18.0003,9 9.9995,0 31.9995,13 49.9998,29 16.9999,16 59.9999,51 94.0001,77 61,47 131.0001,109 188.9996,167 14.9999,15 31.0002,27 36.0003,27 10.9998,0 213,206 213,217 0,4 31.9999,42 70,82 39,41 69.9998,78 69.9998,82 0,4 22.0003,34 50.0005,66 26.9998,32 49.9997,63 49.9997,69 0,6 12.9999,24 30.0002,40 15.9996,16 29.9995,36 29.9995,44 0,9 14.0002,30 30.0004,48 16.9997,18 30.0002,38 30.0002,44 0,5 13.9996,27 29.9995,48 16.9999,21 30.0003,45 30.0003,53 0,8 6.9999,17 14.9996,21 8.0002,3 14.9999,14 14.9999,24 0,11 7.0005,25 15.0006,32 7.9999,7 14.9995,20 14.9995,30 0,10 7.0006,23 15,30 8.0001,7 15.0005,18 15.0005,25 0,7 6.9996,18 14.9996,25 8.0001,7 14.9999,20 14.9999,30 0,10 7.0005,23 15.0006,30 7.9998,7 14.9995,23 14.9995,35 0,12 7.0005,28 14.9999,35 8.0001,7 15.0003,23 15.0003,35 0,13 6.9997,25 14.9998,29 8.0001,3 15,16 15,29 0,14 7.0004,30 15.0002,37 8.0001,7 14.9999,22 14.9999,34 0,11 6.9998,30 14.9999,40 8.0001,11 15.0003,30 15.0003,42 0,12 6.9997,27 14.9998,34 8.0001,7 15,27 15,45 0,20 6.0001,35 15.0002,39 10.0002,3 14.9998,19 14.9998,44 0,23 6.0001,45 15,52 7.9998,7 15.0002,27 15.0002,44 0,17 6.9998,40 14.9999,50 8.0001,11 14.9999,36 14.9999,55 0,20 7.0002,45 15.0003,55 8.0001,11 14.9998,41 14.9998,67 0,29 6.0001,51 15,59 9.0001,8 15.0002,30 15.0002,60 0,26 6.9998,61 14.9999,76 8.0001,17 14.9996,55 14.9996,90 0,33 5.0004,65 12.0001,72 7.0006,7 14.9999,60 19,130 4,64 11.9999,137 18,162 14.0001,62 14.0001,682 -0.9997,735 -5.9998,22 -13.0003,69 -15.0003,105 -2.9997,36 -8.9998,71 -14.9999,78 -8.0001,9 -65.9997,12 -227.0001,12 -162.9996,0 -225.9996,4 -256.0001,15 -21.9999,8 -66.9999,14 -99.9998,15 -33.9999,0 -64.9997,4 -70.9998,10 -5.0004,5 -39,13 -73.9998,16 -36.0003,4 -74.0005,13 -85.0004,20 -10.9998,8 -38.0002,14 -61.0001,14 -24.9999,0 -46.9999,6 -53.9996,15 -7.0005,8 -27.0001,15 -44.0004,15 -17,0 -39.9996,7 -49.9998,15 -10.9998,8 -32.0001,15 -47,15 -14.0003,0 -32.0002,7 -39,15 -6.9997,8 -22.0004,15 -34.0002,15 -11.9995,0 -31.0002,7 -41.9997,15 -10.0002,8 -29,15 -40.0002,15 -12.0002,0 -23.9997,7 -27.9997,15 -3.0005,8 -16,15 -29.0006,15 -13.9995,0 -29.9995,7 -36.9998,15 -6.9999,8 -19.9997,15 -29.9995,15 -10.0002,0 -20.0004,7 -24.0004,15 -2.9997,8 -16.9999,15 -30.9998,15 -14.0002,0 -25.0001,4 -25.0001,9 0,5 -19.0002,19 -42.0004,31 -24,12 -47,28 -50.9997,36 -4,8 -16.0002,14 -27.0001,14 -10.0002,0 -34.0001,14 -51.9997,30 -18,17 -37,30 -43.0001,30 -5.0001,0 -36.9998,26 -69.9997,57 -33.0005,30 -80.0006,72 -105.0007,92 -24.9997,19 -64.9993,55 -89.9998,78 -25,24 -51.9997,43 -59.9998,43 -8.0002,0 -35,-19 -59.9999,-43 z m 139.0001,-467 c 35.9995,-33 70.0001,-60 76.9995,-60 7.0005,0 17,-6 21.0001,-13 10.0001,-15 87.9999,-77 98,-77 3.9998,0 24.0001,-13 45.0001,-30 21.0004,-16 44.9997,-30 52.9998,-30 8.0002,0 17.0001,-7 21.0001,-15 3.0003,-8 15.9998,-15 30,-15 13,0 26.0001,-7 30.0002,-15 2.9997,-8 14.0002,-15 23.9997,-15 11.0005,0 25.0005,-7 32.0001,-15 6.9999,-8 20.0004,-15 30.0002,-15 10.0002,0 23.0001,-7 29.9998,-15 7.0005,-8 20,-15 30.0001,-15 10.0002,0 22.9997,-7 30.0002,-15 6.9997,-8 23,-15 34.9999,-15 12.0002,0 27.9997,-7 35.0002,-15 6.9997,-8 22.9996,-15 34.9998,-15 12.0002,0 28.0002,-7 34.9999,-15 6.9998,-8 24.9997,-15 40.0003,-15 14.9999,0 32.9999,-7 39.9996,-15 7.0006,-8 27.0002,-15 45.0001,-15 18.0003,0 38.0002,-7 45,-15 6.9998,-8 26.9997,-15 44.0004,-15 16.9999,-1 41.9996,-7 55.9999,-15 13.9999,-8 40.9999,-15 59.9996,-15 18.9999,0 46.0003,-7 59.9999,-15 14.0002,-8 48.0004,-15 75.0002,-15 28.0004,0 61.0002,-7 75.0002,-15 16.0002,-9 53.9998,-14 102.0003,-15 41.9995,0 102.9998,-7 134.9994,-15 86.3723,20.6008 74.4763,-87.6377 57,-559 -7.9998,-27 -13.9999,-77 -13.9999,-110 0,-34 -6.9999,-79 -15,-101 -8.0001,-22 -14.0001,-63 -14.9998,-91 0,-29 -7.0002,-65 -15.0003,-80 -8.0001,-16 -14.9999,-48 -14.9999,-72 0,-25 -6.0001,-50 -14.9999,-58 -7.9998,-9 -15.0002,-32 -15.0002,-52 -0.9998,-20 -6.9999,-48 -15,-62 -8.0001,-14 -14.0001,-39 -14.9998,-56 0,-17 -7.0002,-37 -15.0003,-44 -7.9994,-7 -14.9999,-27 -14.9999,-44 0,-17 -6.9997,-40 -14.9995,-50 -8.0001,-11 -15.0006,-32 -15.0006,-47 0,-14 -6.9998,-32 -14.9999,-39 -8,-7 -14.9996,-27 -14.9996,-45 0,-20 -6.0001,-35 -15.0005,-39 -7.9994,-3 -15,-16 -15,-28 0,-13 -6.9996,-32 -14.9995,-42 -8.0001,-11 -15.0006,-30 -15.0006,-42 0,-12 -6.9997,-27 -14.9999,-34 -7.9997,-7 -14.9996,-23 -14.9996,-35 0,-13 -7.0003,-25 -14.9998,-29 -8.0001,-3 -15.0005,-16 -15.0005,-29 0,-14 -6.9995,-30 -14.9997,-37 -8.0001,-7 -14.9998,-20 -14.9998,-30 0,-10 -7.0005,-23 -15.0006,-30 -7.9998,-7 -14.9996,-20 -14.9996,-30 0,-10 -7.0004,-20 -14.9999,-24 -8.0001,-3 -15.0005,-16 -15.0005,-30 0,-13 -21.9993,-48 -29.9995,-52 -8.0001,-3 0,9 0,0 0,-9 -13.9999,-33 -30.0002,-54 -16.9998,-21 -30.0001,-45 -30.0001,-54 0,-9 -4.9997,-16 -10.0001,-16 -6.0001,0 -14.9999,-10 -19.9997,-22 -13.0001,-30 -30.0002,-55 -56.9999,-85 -12.0002,-14 -25,-34 -29.0001,-46 -3.0004,-11 -19.0003,-33 -34.9998,-48 -16.0003,-16 -29.0005,-31 -29.0005,-35 0,-7 -60,-86 -72.0001,-95 -3.9997,-3 -25.9994,-30 -47.9995,-60 -56.0005,-74 -270.0002,-290 -344,-346 -34.0006,-26 -81.0003,-66 -106.0004,-90 -24.9996,-24 -49,-43 -55.0001,-43 -4.9998,0 -27.9994,-16 -49.9995,-36 C 2593,594 2554.0001,564 2528,548 c -29.3542,-9.01893 -46.7768,-36.35658 -64.9997,-52 -76.982,-75.54745 -49.4654,-36.2339 -180.0006,52 -26.9997,16 -65.9997,46 -88,66 -22,20 -43.9997,36 -49.9995,36 -5.0003,0 -30.0004,19 -55.0001,43 -25,24 -71.9998,64 -106.0004,90 -72.9994,55 -286.9997,271 -340.9995,343 -21.0004,28 -45,58 -54.0003,67 -10.0001,9 -38.9999,46 -64.9995,82 -26.0002,36 -55.8112,78.0584 -59.8113,78.0584 -12.4978,8.863 -22.8622,32.4142 -38.2508,50.6942 -28.0002,31 -38.0068,39.6254 -51.0072,69.6254 -4.9996,12 -18.9307,46.622 -24.9308,46.622 -5.0005,0 -10.0002,7 -10.0002,16 0,9 -13.0003,33 -30.0002,54 -16.9995,21 -30.0002,45 -30.0002,54 0,9 -6.9997,19 -14.9998,22 -8.0001,4 -14.9995,17 -14.9995,30 0,14 -7.0006,27 -15.0007,30 -7.9993,4 -14.9998,14 -14.9998,24 0,10 -6.9998,23 -14.9999,30 -8,7 -15,20 -15,30 0,10 -7,23 -15,30 -8,7 -15,23 -15,37 0,13 -7,26 -15,29 -8,4 -14.9999,16 -14.9999,29 0,12 -7.0001,28 -15.0001,35 -8,7 -15,22 -15,34 0,12 -7,31 -15,42 -8,10 -14.9999,29 -14.9999,42 0,12 -7.0001,25 -15.0001,28 -9,4 -15,19 -15,39 0,18 -7,38 -15,45 -8,7 -15,25 -15,39 0,15 -7,36 -14.99999,47 C 986.99999,2296 980,2319 980,2336 c 0,17 -6.99998,37 -14.99996,44 -8.00002,7 -15,27 -15,44 -1.00002,17 -7.00005,42 -15.00003,56 -8.00002,14 -13.99999,42 -15.00001,62 0,20 -6.99997,43 -14.99997,52 -9,8 -14.99999,33 -14.99999,58 0,24 -7.00004,56 -15.00004,72 -8.00002,15 -15,51.6873 -18.43643,80 -6.49829,30.0619 -11.81096,67.6254 -15.68725,90.3127 -3.94254,23.075 -19.1237,65.6254 -19.1237,99.6254 0,0 -22.49492,118.0516 -30.49491,145.0516 -47.93854,520.6779 -74.95747,496.2651 51.74233,526.0103 32,8 92.99998,15 135,15 48.00016,1 85.99966,6 101.99986,15 13.9999,8 48.0002,15 75.0003,15 28.0001,0 60.9999,7 75.0002,15 13.9994,8 40.9999,15 59.9999,15 18.9995,0 45.9996,7 59.9996,15 14.0002,8 38.9999,14 55.9998,15 17.0006,0 37.0007,7 44.0003,15 6.9998,8 26.9998,15 45.0001,15 18,0 37.9997,7 45,15 6.9998,8 24.9998,15 39.9997,15 15.0005,0 33.0005,7 40.0003,15 6.9997,8 22.9996,15 34.9998,15 12.0002,0 28.0001,7 34.9999,15 7.0005,8 23,15 35.0001,15 11.9999,0 28.0002,7 34.9999,15 7.0005,8 20,15 30.0002,15 10.0001,0 22.9997,7 30.0002,15 6.9997,8 19.9996,15 29.9997,15 9.9998,0 23.0005,7 30.0002,15 6.9998,8 20.9997,15 32.0002,15 9.9995,0 20.9999,7 23.9996,15 4.0001,8 17.0003,15 30.0002,15 14.0002,0 26.9997,7 30.0002,15 4.0001,8 12.9998,15 20.9999,15 8.0001,0 31.9995,14 52.9999,30 20.9999,17 41.0003,30 45,30 10.0002,0 88.0001,62 98.0003,77 4,7 13.9995,13 20.9999,13 6.9994,0 40.9999,27 76.9995,60 35.0006,32 71.0001,59 79.0003,59 8.0001,0 43.9997,-27 79.0002,-59 z"
       id="path2"
       style="stroke-width:0.999965"
       sodipodi:nodetypes="cccscsscsscscscscssscscscccccscccccsscscscscscscssscssscssssssssssscssscscscscsssccssccscsssccscscsccssccssscscscscscscssssssssssscssscssscscscscssscsscccccsccsccscscssscscssscsscsscscccsccscscscscssssssssssscsscssssccccssccsccscsscssscscssscssssscscscssccccssccssscccssscscscccsssscscssssscssscscssscsscsccsccssccccscsscsscssscscscssscscscscscsc" />
    <path
       d="M2240 3785 c-9 -10 -32 -15 -75 -15 -43 0 -66 -5 -75 -15 -8 -9 -30 -15 -60 -15 -30 0 -52 -6 -60 -15 -7 -8 -20 -15 -30 -15 -10 0 -23 -7 -30 -15 -7 -8 -23 -15 -35 -15 -12 0 -28 -7 -35 -15 -7 -8 -18 -15 -25 -15 -7 0 -18 -7 -25 -15 -7 -8 -20 -15 -30 -15 -10 0 -23 -7 -30 -15 -7 -8 -20 -15 -29 -15 -9 0 -37 -20 -61 -45 -24 -25 -51 -45 -60 -45 -17 0 -150 -129 -150 -146 0 -6 -27 -41 -60 -77 -33 -36 -60 -72 -60 -80 0 -8 -7 -20 -15 -27 -8 -7 -15 -20 -15 -30 0 -10 -7 -23 -15 -30 -8 -7 -15 -20 -15 -30 0 -10 -7 -23 -15 -30 -8 -7 -15 -20 -15 -30 0 -10 -7 -23 -15 -30 -8 -7 -15 -27 -15 -45 0 -18 -7 -38 -15 -45 -9 -8 -15 -30 -15 -60 0 -30 -6 -52 -15 -60 -13 -10 -15 -53 -15 -270 0 -217 2 -260 15 -270 8 -7 15 -27 15 -45 0 -18 7 -38 15 -45 8 -7 15 -27 15 -45 0 -18 7 -38 15 -45 8 -7 15 -27 15 -45 0 -18 7 -38 15 -45 8 -7 15 -20 15 -29 0 -10 13 -30 30 -46 16 -16 30 -36 30 -45 0 -9 13 -29 30 -45 16 -16 30 -36 30 -45 0 -20 250 -270 271 -270 8 0 28 -13 44 -30 16 -16 36 -30 46 -30 9 0 22 -7 29 -15 7 -8 20 -15 30 -15 10 0 23 -7 30 -15 7 -8 20 -15 30 -15 10 0 23 -7 30 -15 7 -8 20 -15 30 -15 10 0 23 -7 30 -15 7 -8 27 -15 45 -15 18 0 38 -7 45 -15 8 -9 30 -15 60 -15 30 0 52 -6 60 -15 19 -22 461 -22 480 0 8 9 30 15 60 15 30 0 52 6 60 15 7 8 27 15 45 15 18 0 38 7 45 15 7 8 20 15 30 15 10 0 23 7 30 15 7 8 27 15 44 15 23 0 41 9 61 30 16 17 36 30 46 30 9 0 22 7 29 15 7 8 20 15 29 15 21 0 331 310 331 331 0 8 14 28 30 44 17 16 30 39 30 51 0 12 7 24 15 28 8 3 15 14 15 24 0 11 7 25 15 32 8 7 15 20 15 30 0 10 7 23 15 30 8 7 15 27 15 45 0 18 7 38 15 45 9 8 15 30 15 60 0 30 6 52 15 60 11 9 15 34 15 94 0 57 5 88 15 102 20 27 20 147 0 164 -11 9 -15 35 -15 105 0 70 -4 96 -15 105 -9 8 -15 30 -15 60 0 30 -6 52 -15 60 -8 7 -15 20 -15 30 0 10 -7 23 -15 30 -8 7 -15 27 -15 44 0 23 -9 41 -30 61 -16 16 -30 36 -30 46 0 9 -7 22 -15 29 -8 7 -15 20 -15 29 0 9 -14 29 -30 45 -17 16 -30 37 -30 45 0 21 -220 241 -241 241 -8 0 -28 14 -44 30 -16 17 -36 30 -45 30 -9 0 -29 14 -45 30 -16 17 -36 30 -46 30 -9 0 -22 7 -29 15 -7 8 -20 15 -30 15 -10 0 -23 7 -30 15 -7 8 -27 15 -45 15 -18 0 -38 7 -45 15 -7 8 -29 15 -49 15 -21 0 -46 7 -57 15 -12 9 -43 14 -85 15 -47 0 -70 4 -79 15 -10 12 -40 15 -150 15 -110 0 -140 -3 -150 -15z m120 -172 c1 -38 27 -83 49 -83 6 0 11 17 11 38 1 37 27 82 49 82 6 0 11 -17 11 -37 1 -38 27 -83 49 -83 6 0 11 8 11 19 0 10 6 24 14 31 8 6 16 21 18 33 5 36 23 20 28 -25 8 -70 60 -125 60 -64 0 14 5 28 11 31 5 4 14 18 20 32 15 40 29 16 29 -53 0 -56 2 -64 19 -64 11 0 30 18 47 45 39 63 54 59 54 -15 0 -57 1 -60 24 -60 15 0 34 12 49 30 14 17 30 30 36 30 16 0 13 -53 -4 -76 -8 -10 -15 -25 -15 -31 0 -18 55 -16 70 2 7 8 20 15 30 15 10 0 21 8 24 17 5 12 10 13 18 5 9 -9 7 -16 -5 -30 -22 -25 -24 -112 -2 -112 8 0 15 4 15 9 0 10 65 51 81 51 15 0 10 -27 -6 -34 -8 -3 -15 -17 -15 -31 0 -14 -4 -25 -10 -25 -16 0 -12 -22 7 -35 13 -9 22 -9 44 2 16 8 31 18 34 24 8 13 45 11 45 -2 0 -6 -13 -31 -30 -56 -32 -47 -39 -83 -16 -83 7 0 19 7 26 15 14 16 80 21 80 6 0 -6 -13 -25 -30 -43 -43 -47 -40 -68 9 -68 22 0 44 6 51 15 16 19 50 20 50 1 0 -7 -18 -30 -40 -50 -22 -20 -40 -40 -40 -45 0 -6 26 -11 58 -13 53 -3 57 -5 57 -28 0 -16 -7 -26 -20 -30 -30 -8 -65 -33 -65 -47 0 -9 19 -13 63 -13 35 0 66 -3 70 -6 10 -10 -24 -54 -42 -54 -19 -1 -61 -34 -61 -49 0 -6 13 -11 29 -11 34 0 91 -30 91 -47 0 -7 -10 -13 -22 -13 -23 -1 -68 -31 -68 -47 1 -12 68 -43 95 -43 16 0 25 -6 25 -15 0 -10 -10 -15 -29 -15 -16 0 -31 -6 -35 -15 -3 -8 -17 -15 -31 -15 -14 0 -25 -6 -25 -13 0 -18 34 -45 62 -49 17 -2 23 -9 23 -28 0 -23 -4 -25 -57 -28 -32 -2 -58 -7 -58 -13 0 -12 67 -72 92 -81 36 -14 7 -28 -58 -28 -45 0 -64 -4 -64 -13 0 -14 35 -39 65 -47 13 -4 21 -16 23 -34 3 -27 2 -28 -40 -26 -64 4 -78 1 -78 -13 0 -7 8 -17 19 -24 10 -6 29 -26 41 -42 19 -27 20 -32 5 -37 -9 -4 -24 1 -34 10 -12 11 -31 16 -53 14 -46 -4 -50 -36 -9 -71 17 -14 31 -30 31 -36 0 -14 -77 -14 -85 -1 -3 6 -13 10 -21 10 -19 0 -18 -34 1 -50 8 -7 15 -21 15 -32 0 -10 7 -21 15 -24 8 -4 15 -12 15 -20 0 -19 -44 -18 -60 1 -7 8 -25 15 -41 15 -29 0 -46 -14 -29 -25 5 -3 10 -17 10 -31 0 -14 7 -27 15 -30 16 -7 21 -34 6 -34 -16 0 -81 41 -81 51 0 5 -7 9 -15 9 -11 0 -15 -11 -15 -39 0 -22 6 -44 15 -51 17 -14 20 -60 4 -60 -6 0 -22 14 -36 30 -18 23 -33 30 -59 30 -24 0 -34 -5 -34 -15 0 -8 5 -15 10 -15 6 0 10 -20 10 -45 0 -53 -12 -56 -47 -14 -17 19 -33 29 -47 27 -18 -3 -21 -11 -24 -60 -2 -37 -7 -58 -15 -57 -7 0 -28 20 -47 44 -49 61 -60 58 -60 -15 0 -47 -3 -60 -15 -60 -8 0 -15 3 -15 8 -1 4 -11 20 -24 36 -20 24 -26 27 -45 17 -16 -9 -21 -21 -21 -51 0 -21 -4 -41 -8 -44 -12 -7 -52 49 -52 74 0 13 -7 20 -18 20 -30 0 -42 -21 -42 -72 0 -32 -4 -48 -12 -48 -17 1 -48 63 -48 95 0 14 -5 25 -11 25 -22 0 -48 -45 -49 -82 0 -67 -49 -33 -60 42 -4 29 -9 35 -30 35 -19 0 -25 -6 -31 -34 -7 -33 -23 -51 -46 -51 -9 0 -13 19 -13 60 0 71 -13 77 -50 22 -49 -74 -70 -72 -70 8 0 73 -11 76 -60 15 -19 -24 -41 -44 -47 -44 -18 -1 -16 54 2 69 8 7 15 21 15 31 0 24 -51 27 -70 4 -7 -8 -19 -15 -27 -15 -7 0 -16 -7 -19 -15 -8 -19 -34 -19 -34 0 0 8 7 15 15 15 11 0 15 12 15 45 0 41 -2 45 -24 45 -15 0 -34 -12 -49 -30 -14 -16 -30 -30 -36 -30 -18 0 -13 78 5 88 9 5 14 18 12 33 -5 37 -40 36 -71 0 -14 -17 -30 -31 -36 -31 -16 0 -13 46 4 60 20 16 21 90 1 90 -8 0 -16 -7 -20 -15 -3 -8 -15 -15 -26 -15 -11 0 -23 -7 -26 -15 -4 -8 -12 -15 -19 -15 -25 0 -28 22 -6 51 20 27 28 78 14 92 -3 4 -13 1 -22 -7 -22 -18 -79 -28 -87 -15 -3 6 8 25 25 43 40 42 42 76 3 76 -16 0 -37 -7 -48 -15 -25 -19 -44 -19 -44 0 0 8 20 29 45 47 64 48 59 58 -30 58 -89 0 -94 9 -30 60 61 49 58 60 -15 60 -42 0 -60 4 -60 13 0 14 35 39 65 47 13 4 20 14 20 30 0 21 -6 26 -35 30 -75 11 -109 60 -42 60 37 1 82 27 82 49 0 6 -10 11 -22 11 -30 0 -97 33 -98 48 0 6 11 12 24 12 13 0 29 7 36 15 7 8 23 15 36 15 55 0 -3 55 -66 62 -19 2 -25 9 -25 28 0 23 4 25 55 30 50 5 55 7 55 30 0 16 -7 26 -20 30 -30 8 -65 33 -65 47 0 9 18 13 60 13 73 0 76 11 15 60 -71 57 -61 69 37 44 43 -10 48 20 9 60 -30 31 -38 55 -24 69 3 4 14 0 24 -9 10 -9 30 -14 51 -12 46 4 50 36 9 71 -17 14 -31 30 -31 36 0 17 80 13 86 -4 12 -31 34 -16 34 23 0 29 -7 45 -30 67 -16 15 -27 32 -24 37 8 13 40 9 54 -7 7 -8 22 -15 34 -15 12 0 27 -5 34 -12 19 -19 27 20 8 41 -9 10 -16 25 -16 33 0 9 -7 21 -15 28 -22 18 -18 30 8 30 13 0 36 -13 52 -30 30 -31 75 -41 75 -16 0 8 -7 16 -15 20 -18 6 -21 81 -4 92 6 3 30 -8 53 -25 24 -16 46 -27 50 -24 12 13 6 71 -9 77 -8 3 -15 17 -15 31 0 36 38 33 75 -5 47 -49 99 -35 60 16 -18 23 -20 74 -2 74 18 0 29 -11 57 -52 37 -56 50 -49 50 27 0 39 4 65 11 65 21 0 49 -21 49 -38 1 -20 34 -62 49 -62 7 0 11 23 11 59 0 33 4 63 10 66 16 10 50 -14 50 -35 0 -21 33 -60 50 -60 6 0 10 16 10 36 0 37 26 83 48 84 7 0 12 -14 12 -37z"
       id="path4" />
    <path
       d="M2194 3365 c-10 -8 -28 -15 -40 -15 -11 0 -31 -11 -43 -24 -19 -20 -22 -33 -19 -82 3 -53 6 -60 31 -72 15 -7 27 -17 27 -23 0 -5 7 -9 15 -9 10 0 15 10 15 28 0 39 11 47 31 21 19 -25 36 -19 50 18 12 31 33 25 37 -10 4 -35 32 -36 32 -2 0 39 28 43 55 9 24 -30 29 -27 37 19 6 33 23 23 26 -15 4 -46 20 -48 47 -8 26 39 45 39 45 0 0 -33 11 -38 30 -15 19 23 30 18 30 -16 0 -26 3 -30 23 -27 12 2 26 13 32 26 14 32 29 22 33 -21 3 -40 12 -46 32 -22 19 23 30 18 30 -15 0 -27 3 -30 30 -30 20 0 30 5 30 15 0 8 7 15 15 15 8 0 15 -7 15 -15 0 -8 -7 -15 -15 -15 -10 0 -15 -10 -15 -30 0 -23 5 -30 19 -30 10 0 24 7 31 15 7 8 19 15 26 15 19 0 18 -26 -1 -34 -19 -7 -20 -56 -1 -56 8 0 16 7 20 15 7 19 56 20 56 1 0 -8 -7 -16 -15 -20 -14 -5 -22 -56 -8 -56 3 0 15 8 25 17 25 22 45 5 29 -26 -7 -12 -16 -21 -21 -21 -6 0 -10 -7 -10 -15 0 -10 10 -15 30 -15 33 0 38 -11 15 -30 -26 -21 -17 -30 30 -30 53 0 59 -16 15 -45 -39 -26 -39 -45 0 -45 33 0 38 -11 15 -30 -22 -18 -18 -28 13 -32 21 -2 28 -9 30 -30 4 -31 23 -36 42 -13 7 8 18 15 24 15 7 0 22 10 34 23 19 20 22 35 22 99 0 55 -4 79 -15 88 -8 7 -15 20 -15 30 0 9 -11 37 -25 61 -14 24 -28 51 -32 59 -35 74 -212 270 -243 270 -9 0 -29 14 -45 30 -16 17 -36 30 -46 30 -9 0 -22 7 -29 15 -7 8 -27 15 -45 15 -18 0 -38 7 -45 15 -7 8 -27 15 -45 15 -18 0 -38 7 -45 15 -18 22 -377 22 -406 0z"
       id="path6" />
    <path
       d="M1750 3088 c-44 -46 -80 -90 -80 -99 0 -9 -7 -22 -15 -29 -8 -7 -15 -21 -15 -32 0 -10 -7 -21 -15 -24 -8 -4 -15 -16 -15 -29 0 -12 -7 -28 -15 -35 -8 -7 -15 -28 -15 -47 0 -21 -6 -36 -15 -39 -11 -5 -15 -23 -15 -73 -1 -38 -7 -76 -15 -91 -19 -33 -19 -129 0 -154 10 -13 15 -43 15 -87 0 -47 4 -70 15 -79 8 -7 15 -27 15 -45 0 -18 7 -38 15 -45 8 -7 15 -20 15 -30 0 -10 7 -23 15 -30 8 -7 15 -20 15 -29 0 -10 12 -28 26 -42 14 -13 33 -37 41 -53 25 -48 94 -116 117 -116 12 0 27 -5 33 -11 8 -8 13 -8 17 0 4 6 17 11 30 11 39 0 66 39 66 98 0 53 -8 63 -30 37 -19 -23 -30 -18 -30 15 0 27 -3 30 -30 30 -33 0 -38 11 -15 30 26 21 17 30 -30 30 -32 0 -45 4 -45 14 0 8 7 16 15 20 19 7 20 56 1 56 -8 0 -16 -7 -20 -15 -3 -8 -10 -15 -16 -15 -15 0 -12 29 5 46 25 25 18 44 -15 44 -33 0 -38 11 -15 30 23 19 18 30 -15 30 -39 0 -39 19 0 45 44 29 38 45 -15 45 -51 0 -66 26 -17 32 21 2 27 8 27 28 0 20 -6 26 -27 28 -39 5 -37 32 2 32 39 0 39 19 0 45 -44 29 -38 45 15 45 32 0 45 4 45 14 0 8 -11 16 -25 18 -32 4 -34 21 -3 28 16 4 23 13 23 30 0 17 -7 26 -23 30 -37 8 -26 25 18 28 43 3 49 12 25 32 -23 19 -18 30 15 30 25 0 30 4 30 25 0 14 -7 28 -15 31 -19 8 -20 34 -1 34 7 0 19 -7 26 -15 7 -8 21 -15 31 -15 23 0 25 25 4 34 -19 7 -20 56 -1 56 8 0 18 -5 21 -10 12 -19 25 1 25 36 0 37 10 43 30 19 22 -27 30 -16 28 38 -2 72 -25 97 -90 97 -47 0 -50 -2 -128 -82z"
       id="path8" />
    <path
       d="M2322 3038 c-7 -7 -33 -15 -60 -18 -41 -4 -47 -8 -50 -30 -2 -16 8 -41 28 -68 16 -23 30 -48 30 -56 0 -7 7 -19 15 -26 8 -7 15 -19 15 -27 0 -8 14 -32 30 -53 17 -21 30 -42 30 -48 0 -5 7 -15 15 -22 8 -7 15 -21 15 -30 0 -21 57 -60 87 -60 12 0 26 -7 33 -15 11 -13 42 -15 199 -13 l186 3 3 53 c2 35 -2 59 -12 74 -9 12 -16 32 -16 43 0 12 -13 34 -30 50 -16 16 -30 34 -30 41 0 6 -19 30 -41 53 -23 22 -47 41 -53 41 -7 0 -25 14 -41 30 -16 17 -39 30 -51 30 -12 0 -27 7 -34 15 -8 9 -30 15 -60 15 -30 0 -52 6 -60 15 -15 19 -130 21 -148 3z"
       id="path10" />
    <path
       d="M2003 2861 c-35 -37 -63 -74 -63 -83 0 -9 -7 -21 -15 -28 -8 -7 -15 -28 -15 -47 0 -21 -6 -36 -15 -39 -22 -9 -22 -261 0 -290 8 -10 15 -29 15 -40 0 -12 7 -27 15 -34 8 -7 15 -20 15 -29 0 -10 14 -30 30 -46 17 -16 30 -33 30 -39 0 -14 52 -66 66 -66 14 0 84 81 84 97 0 6 7 16 15 23 8 7 15 20 15 30 0 10 7 23 15 30 8 7 15 20 15 29 0 9 14 29 30 45 17 16 30 39 30 51 0 12 7 30 15 41 19 25 19 88 0 104 -8 7 -15 20 -15 30 0 10 -7 23 -15 30 -8 7 -15 20 -15 30 0 10 -7 23 -15 30 -8 7 -15 18 -15 26 0 7 -20 42 -45 78 -25 37 -45 72 -45 79 -1 15 -35 57 -47 56 -4 -1 -36 -32 -70 -68z"
       id="path12" />
    <path
       d="M2381 2541 c-30 -23 -25 -56 9 -56 20 0 26 6 28 29 5 39 -8 48 -37 27z"
       id="path14" />
    <path
       d="M2412 2397 c-29 -29 -52 -60 -52 -69 0 -8 -7 -21 -15 -28 -8 -7 -15 -17 -15 -22 0 -6 -13 -27 -30 -48 -16 -21 -30 -45 -30 -53 0 -8 -7 -20 -15 -27 -8 -7 -15 -20 -15 -30 0 -10 -7 -23 -15 -30 -27 -23 -18 -54 24 -72 51 -24 272 -26 291 -3 7 8 24 15 37 15 14 0 42 14 63 30 21 17 44 30 52 30 19 0 148 132 148 152 0 8 7 21 15 28 8 7 15 20 15 30 0 10 7 23 15 30 10 8 15 31 15 66 l0 54 -218 0 -218 0 -52 -53z"
       id="path16" />
    <path
       d="M3110 2435 c-7 -8 -23 -15 -36 -15 -33 0 -30 -21 6 -45 44 -29 38 -45 -15 -45 -33 0 -45 -4 -45 -15 0 -10 10 -15 30 -15 20 0 30 -5 30 -15 0 -11 -12 -15 -45 -15 -53 0 -59 -16 -15 -45 16 -11 30 -26 30 -32 0 -18 -49 -16 -56 2 -9 21 -34 19 -34 -4 0 -10 7 -24 15 -31 25 -21 18 -40 -15 -40 -33 0 -38 -11 -15 -30 26 -21 17 -30 -30 -30 -47 0 -56 -9 -30 -30 8 -7 15 -16 15 -21 0 -15 -50 -10 -56 6 -9 21 -34 19 -34 -4 0 -10 7 -24 15 -31 8 -7 15 -19 15 -26 0 -19 -26 -18 -34 1 -3 8 -17 15 -31 15 -21 0 -25 -5 -25 -30 0 -33 -11 -38 -30 -15 -21 26 -30 17 -30 -30 0 -53 -16 -59 -45 -15 -26 39 -45 39 -45 0 0 -33 -11 -38 -30 -15 -19 23 -30 18 -30 -13 0 -42 -9 -44 -42 -11 -35 35 -48 30 -48 -17 0 -24 -5 -34 -15 -34 -10 0 -15 10 -15 30 0 37 -17 38 -49 4 -27 -28 -38 -23 -43 19 -4 35 -22 36 -26 2 -4 -29 -32 -35 -32 -6 0 24 -25 45 -45 37 -8 -3 -15 -17 -15 -31 0 -16 -6 -25 -15 -25 -11 0 -15 12 -15 45 0 25 -4 45 -10 45 -5 0 -26 -17 -45 -37 -31 -34 -35 -43 -33 -88 3 -45 7 -52 46 -82 38 -29 51 -33 102 -33 39 0 62 -5 70 -15 17 -21 139 -21 166 0 12 9 42 14 80 15 42 0 65 5 74 15 7 8 27 15 45 15 18 0 38 7 45 15 7 8 20 15 30 15 10 0 23 7 30 15 7 8 20 15 30 15 10 0 23 7 30 15 7 8 19 15 26 15 19 0 244 219 244 236 0 8 14 33 30 56 17 22 30 47 30 53 0 7 7 18 15 25 8 7 15 25 15 40 0 15 7 33 15 40 11 9 15 33 15 89 0 68 -3 80 -23 99 -27 26 -79 29 -97 7z"
       id="path18" />
  </g>
</svg>
